<svg id="Capa_1" enable-background="new 0 0 512 512" height="512" viewBox="0 0 512 512" width="512" xmlns="http://www.w3.org/2000/svg"><g><g><ellipse cx="256" cy="225.196" fill="#b2f0fb" rx="74.491" ry="74.491" transform="matrix(.707 -.707 .707 .707 -84.257 246.978)"/></g><g fill="#020288"><path d="m406.322 324.331-40.232-20.529c5.759-33.811 10.229-68.621 10.229-95.228 0-74.855-31.3-127.189-57.558-157.911-28.464-33.302-56.817-48.818-58.011-49.462-2.965-1.602-6.537-1.602-9.502 0-1.193.643-29.547 16.16-58.011 49.462-26.258 30.722-57.558 83.056-57.558 157.911 0 26.606 4.469 61.416 10.229 95.228l-40.231 20.529c-3.954 2.018-6.104 6.399-5.282 10.761l22.388 118.704c.623 3.3 2.86 6.067 5.957 7.367 1.244.522 2.56.779 3.869.779 1.952 0 3.891-.571 5.561-1.689l44.64-29.862h25.43c-.732 3.384-1.106 6.855-1.106 10.357 0 24.308 34.746 61.108 41.712 68.239 1.882 1.926 4.461 3.012 7.153 3.012s5.272-1.086 7.153-3.012c6.966-7.131 41.712-43.932 41.712-68.239 0-3.502-.374-6.973-1.106-10.357h25.43l44.641 29.862c1.671 1.117 3.609 1.689 5.561 1.689 1.31 0 2.626-.257 3.869-.779 3.097-1.3 5.334-4.067 5.957-7.367l22.388-118.704c.823-4.362-1.328-8.743-5.282-10.761zm-198.402-260.06c19.509-22.987 39.267-36.959 48.08-42.592 8.821 5.638 28.574 19.608 48.08 42.592 5.689 6.704 10.918 13.616 15.685 20.729h-127.53c4.766-7.113 9.995-14.025 15.685-20.729zm-27.591 40.729h151.342c16.379 31.244 24.648 65.914 24.648 103.574 0 61.133-25.645 171.975-32.827 201.817h-134.984c-7.183-29.838-32.827-140.662-32.827-201.817 0-37.66 8.269-72.33 24.648-103.574zm-58.891 233.742 28.147-14.363c7.481 40.135 15.906 76.007 19.564 91.09l-29.516 19.745zm163.427 102.007c0 10.148-15.143 31.078-28.865 46.555-13.724-15.477-28.865-36.408-28.865-46.555 0-3.565.654-7.073 1.915-10.357h53.901c1.26 3.284 1.914 6.792 1.914 10.357zm87.503-5.535-29.516-19.744c3.658-15.082 12.082-50.955 19.564-91.09l28.147 14.363z"/><path d="m256 257.132c17.609 0 31.936-14.327 31.936-31.937s-14.327-31.935-31.936-31.935-31.936 14.326-31.936 31.936 14.327 31.936 31.936 31.936zm0-43.872c6.582 0 11.936 5.355 11.936 11.936 0 6.582-5.354 11.937-11.936 11.937s-11.936-5.355-11.936-11.937 5.354-11.936 11.936-11.936z"/></g></g></svg>