<svg id="Capa_1" enable-background="new 0 0 512 512" height="512" viewBox="0 0 512 512" width="512" xmlns="http://www.w3.org/2000/svg"><g><g><g><g><path d="m310.089 68.74h103.539l-11.798-48.062c-3.574-14.558-18.273-23.463-32.831-19.889l-69.825 17.14z" fill="#e2c4ff"/></g><g><path d="m228.918 35.175-191.248 46.947c-14.558 3.574-23.463 18.273-19.89 32.831l69.98 285.078v-306.837c0-13.506 10.948-24.454 24.454-24.454h109.493z" fill="#e2c4ff"/></g></g><g><g><path d="m112.214 466.798c-2.963 0-5.802-.527-8.43-1.492l6.386 26.016c3.574 14.558 18.273 23.463 32.831 19.889l180.924-44.413z" fill="#e2c4ff"/></g><g><path d="m494.219 397.046-50.183-204.432v244.699l30.294-7.436c14.558-3.573 23.463-18.272 19.889-32.831z" fill="#e2c4ff"/></g></g></g><g fill="#020288"><path d="m419.582 58.74h-101.413l-8.193-38.138h12.212c5.522 0 10-4.478 10-10s-4.478-10-10-10h-112.58c-5.523 0-10 4.478-10 10 0 5.523 4.477 10 10 10h12.212l-8.193 38.138h-101.412c-18.998 0-34.454 15.456-34.454 34.454v349.15c0 18.998 15.456 34.454 34.454 34.454h307.367c18.998 0 34.454-15.456 34.454-34.454v-349.15c0-18.998-15.456-34.454-34.454-34.454zm-97.392 54.985v26.834h-112.585v-26.834zm-32.671-93.123 15.709 73.122h-78.66l15.709-73.122zm144.517 421.743c0 7.97-6.484 14.454-14.454 14.454h-307.367c-7.97 0-14.454-6.484-14.454-14.454v-349.151c0-7.97 6.484-14.454 14.454-14.454h97.116l-3.219 14.984h-6.507c-5.523 0-10 4.478-10 10v46.834c0 5.522 4.477 10 10 10h56.293v49.604c0 5.522 4.478 10 10 10s10-4.478 10-10v-49.604h56.292c5.522 0 10-4.478 10-10v-46.834c0-5.522-4.478-10-10-10h-6.506l-3.219-14.984h97.116c7.97 0 14.454 6.484 14.454 14.454v349.151z"/><path d="m376.387 246h-220.977c-5.522 0-10 4.477-10 10 0 5.522 4.478 10 10 10h220.977c5.522 0 10-4.478 10-10 0-5.523-4.478-10-10-10z"/><path d="m376.387 316.159h-220.977c-5.522 0-10 4.478-10 10s4.478 10 10 10h220.977c5.522 0 10-4.478 10-10s-4.478-10-10-10z"/></g></g></svg>